REM DIRINDEX 1\2,1\3,1\4,1\5
REM DIRNAME folder01,folder02,folder03,folder04,folder05
TITLE ""
FILE "1Q_t_1277-1286.mp3" MP3
  TRACK 01 AUDIO
    TITLE "3:cjc004_4736"
    INDEX 01 00:00:00
  TRACK 02 AUDIO
    TITLE "0:"
    INDEX 01 00:00:72
  TRACK 03 AUDIO
    TITLE "4:cjc004_4737"
    INDEX 01 00:01:21
  TRACK 04 AUDIO
    TITLE "0:"
    INDEX 01 00:02:34
  TRACK 05 AUDIO
    TITLE "5:cjc004_4738"
    INDEX 01 00:02:59
  TRACK 06 AUDIO
    TITLE "0:"
    INDEX 01 00:06:65
  TRACK 07 AUDIO
    TITLE "3:cjc004_4739"
    INDEX 01 00:07:45
  TRACK 08 AUDIO
    TITLE "0:"
    INDEX 01 00:08:48
  TRACK 09 AUDIO
    TITLE "4:cjc004_4740"
    INDEX 01 00:09:04
  TRACK 10 AUDIO
    TITLE "0:"
    INDEX 01 00:10:25
  TRACK 11 AUDIO
    TITLE "5:cjc004_4741"
    INDEX 01 00:10:45
  TRACK 12 AUDIO
    TITLE "0:"
    INDEX 01 00:16:02
  TRACK 13 AUDIO
    TITLE "3:cjc004_4742"
    INDEX 01 00:16:57
  TRACK 14 AUDIO
    TITLE "0:"
    INDEX 01 00:17:63
  TRACK 15 AUDIO
    TITLE "4:cjc004_4743"
    INDEX 01 00:18:19
  TRACK 16 AUDIO
    TITLE "0:"
    INDEX 01 00:19:42
  TRACK 17 AUDIO
    TITLE "5:cjc004_4744"
    INDEX 01 00:19:67
  TRACK 18 AUDIO
    TITLE "0:"
    INDEX 01 00:24:49
  TRACK 19 AUDIO
    TITLE "3:cjc004_4745"
    INDEX 01 00:25:27
  TRACK 20 AUDIO
    TITLE "0:"
    INDEX 01 00:26:34
  TRACK 21 AUDIO
    TITLE "4:cjc004_4746"
    INDEX 01 00:26:58
  TRACK 22 AUDIO
    TITLE "0:"
    INDEX 01 00:28:02
  TRACK 23 AUDIO
    TITLE "5:cjc004_4747"
    INDEX 01 00:28:27
  TRACK 24 AUDIO
    TITLE "0:"
    INDEX 01 00:32:19
  TRACK 25 AUDIO
    TITLE "3:cjc004_4748"
    INDEX 01 00:32:74
  TRACK 26 AUDIO
    TITLE "0:"
    INDEX 01 00:34:26
  TRACK 27 AUDIO
    TITLE "4:cjc004_4749"
    INDEX 01 00:34:55
  TRACK 28 AUDIO
    TITLE "0:"
    INDEX 01 00:35:72
  TRACK 29 AUDIO
    TITLE "5:cjc004_4750"
    INDEX 01 00:36:23
  TRACK 30 AUDIO
    TITLE "0:"
    INDEX 01 00:40:52
  TRACK 31 AUDIO
    TITLE "3:cjc004_4751"
    INDEX 01 00:41:28
  TRACK 32 AUDIO
    TITLE "0:"
    INDEX 01 00:42:61
  TRACK 33 AUDIO
    TITLE "4:cjc004_4752"
    INDEX 01 00:43:19
  TRACK 34 AUDIO
    TITLE "0:"
    INDEX 01 00:44:65
  TRACK 35 AUDIO
    TITLE "5:cjc004_4753"
    INDEX 01 00:45:14
  TRACK 36 AUDIO
    TITLE "0:"
    INDEX 01 00:49:49
  TRACK 37 AUDIO
    TITLE "3:cjc004_4754"
    INDEX 01 00:50:31
  TRACK 38 AUDIO
    TITLE "0:"
    INDEX 01 00:51:65
  TRACK 39 AUDIO
    TITLE "4:cjc004_4755"
    INDEX 01 00:52:14
  TRACK 40 AUDIO
    TITLE "0:"
    INDEX 01 00:53:41
  TRACK 41 AUDIO
    TITLE "5:cjc004_4756"
    INDEX 01 00:53:68
  TRACK 42 AUDIO
    TITLE "0:"
    INDEX 01 00:58:13
  TRACK 43 AUDIO
    TITLE "3:cjc004_4757"
    INDEX 01 00:58:69
  TRACK 44 AUDIO
    TITLE "0:"
    INDEX 01 00:59:73
  TRACK 45 AUDIO
    TITLE "4:cjc004_4758"
    INDEX 01 01:00:25
  TRACK 46 AUDIO
    TITLE "0:"
    INDEX 01 01:01:46
  TRACK 47 AUDIO
    TITLE "5:cjc004_4759"
    INDEX 01 01:01:74
  TRACK 48 AUDIO
    TITLE "0:"
    INDEX 01 01:06:45
  TRACK 49 AUDIO
    TITLE "3:cjc004_4760"
    INDEX 01 01:07:27
  TRACK 50 AUDIO
    TITLE "0:"
    INDEX 01 01:08:54
  TRACK 51 AUDIO
    TITLE "4:cjc004_4761"
    INDEX 01 01:09:10
  TRACK 52 AUDIO
    TITLE "0:"
    INDEX 01 01:10:43
  TRACK 53 AUDIO
    TITLE "5:cjc004_4762"
    INDEX 01 01:10:69
  TRACK 54 AUDIO
    TITLE "0:"
    INDEX 01 01:15:15
  TRACK 55 AUDIO
    TITLE "3:cjc004_4763"
    INDEX 01 01:15:74
  TRACK 56 AUDIO
    TITLE "0:"
    INDEX 01 01:17:02
  TRACK 57 AUDIO
    TITLE "4:cjc004_4764"
    INDEX 01 01:17:28
  TRACK 58 AUDIO
    TITLE "0:"
    INDEX 01 01:18:39
  TRACK 59 AUDIO
    TITLE "5:cjc004_4765"
    INDEX 01 01:18:60
  TRACK 60 AUDIO
    TITLE "0:"
    INDEX 01 01:23:18
